HIERARCHY
ROOT hip
{
  OFFSET 0 0 0
  CHANNELS 6 Xposition Yposition Zposition Zrotation Yrotation Xrotation
  JOINT abdomen
  {
    OFFSET 0 20.6881 -0.73152
    CHANNELS 3 Zrotation Xrotation Yrotation
    JOINT chest
    {
      OFFSET 0 11.7043 -0.48768
      CHANNELS 3 Zrotation Xrotation Yrotation
      JOINT neck
      {
        OFFSET 0 22.1894 -2.19456
        CHANNELS 3 Zrotation Xrotation Yrotation
        JOINT head
        {
          OFFSET -0.24384 7.07133 1.2192
          CHANNELS 3 Zrotation Xrotation Yrotation
          JOINT leftEye
          {
            OFFSET 4.14528 8.04674 8.04672
            CHANNELS 3 Zrotation Xrotation Yrotation
            End Site
            {
              OFFSET 1 0 0
            }
          }
          JOINT rightEye
          {
            OFFSET -3.6576 8.04674 8.04672
            CHANNELS 3 Zrotation Xrotation Yrotation
            End Site
            {
              OFFSET 1 0 0
            }
          }
        }
      }
      JOINT rCollar
      {
        OFFSET -2.68224 19.2634 -4.8768
        CHANNELS 3 Zrotation Xrotation Yrotation
        JOINT rShldr
        {
          OFFSET -8.77824 -1.95073 1.46304
          CHANNELS 3 Zrotation Xrotation Yrotation
          JOINT rForeArm
          {
            OFFSET -28.1742 -1.7115 0.48768
            CHANNELS 3 Zrotation Xrotation Yrotation
            JOINT rHand
            {
              OFFSET -22.5879 0.773209 7.07136
              CHANNELS 3 Zrotation Xrotation Yrotation
              JOINT rThumb1
              {
                OFFSET -1.2192 -0.487915 3.41376
                CHANNELS 3 Zrotation Xrotation Yrotation
                JOINT rThumb2
                {
                  OFFSET -3.37035 -0.52449 3.41376
                  CHANNELS 3 Zrotation Xrotation Yrotation
                  End Site
                  {
                    OFFSET -1.78271 -1.18214 1.43049
                  }
                }
              }
              JOINT rIndex1
              {
                OFFSET -7.75947 0.938293 5.60832
                CHANNELS 3 Zrotation Xrotation Yrotation
                JOINT rIndex2
                {
                  OFFSET -2.54057 -0.884171 1.56538
                  CHANNELS 3 Zrotation Xrotation Yrotation
                  End Site
                  {
                    OFFSET -1.62519 -0.234802 1.16502
                  }
                }
              }
              JOINT rMid1
              {
                OFFSET -8.24714 1.18213 3.41376
                CHANNELS 3 Zrotation Xrotation Yrotation
                JOINT rMid2
                {
                  OFFSET -3.10165 -0.590103 1.0647
                  CHANNELS 3 Zrotation Xrotation Yrotation
                  End Site
                  {
                    OFFSET -2.48547 -0.328903 0.83742
                  }
                }
              }
              JOINT rRing1
              {
                OFFSET -8.82822 0.546677 1.51678
                CHANNELS 3 Zrotation Xrotation Yrotation
                JOINT rRing2
                {
                  OFFSET -2.60934 -0.819778 -0.0198488
                  CHANNELS 3 Zrotation Xrotation Yrotation
                  End Site
                  {
                    OFFSET -2.33842 -0.294052 0.168128
                  }
                }
              }
              JOINT rPinky1
              {
                OFFSET -8.27202 -0.0477905 -0.4584
                CHANNELS 3 Zrotation Xrotation Yrotation
                JOINT rPinky2
                {
                  OFFSET -1.82734 -0.647385 -0.700984
                  CHANNELS 3 Zrotation Xrotation Yrotation
                  End Site
                  {
                    OFFSET -1.69225 -0.51767 -0.607171
                  }
                }
              }
            }
          }
        }
      }
      JOINT lCollar
      {
        OFFSET 2.68224 19.2634 -4.8768
        CHANNELS 3 Zrotation Xrotation Yrotation
        JOINT lShldr
        {
          OFFSET 8.77824 -1.95073 1.46304
          CHANNELS 3 Zrotation Xrotation Yrotation
          JOINT lForeArm
          {
            OFFSET 28.1742 -1.7115 0.48768
            CHANNELS 3 Zrotation Xrotation Yrotation
            JOINT lHand
            {
              OFFSET 22.5879 0.773209 7.07136
              CHANNELS 3 Zrotation Xrotation Yrotation
              JOINT lThumb1
              {
                OFFSET 1.2192 -0.487915 3.41376
                CHANNELS 3 Zrotation Xrotation Yrotation
                JOINT lThumb2
                {
                  OFFSET 3.37035 -0.52449 3.41376
                  CHANNELS 3 Zrotation Xrotation Yrotation
                  End Site
                  {
                    OFFSET 1.78271 -1.18214 1.43049
                  }
                }
              }
              JOINT lIndex1
              {
                OFFSET 7.75947 0.938293 5.60832
                CHANNELS 3 Zrotation Xrotation Yrotation
                JOINT lIndex2
                {
                  OFFSET 2.54057 -0.884171 1.56538
                  CHANNELS 3 Zrotation Xrotation Yrotation
                  End Site
                  {
                    OFFSET 1.62519 -0.234802 1.16502
                  }
                }
              }
              JOINT lMid1
              {
                OFFSET 8.24714 1.18213 3.41376
                CHANNELS 3 Zrotation Xrotation Yrotation
                JOINT lMid2
                {
                  OFFSET 3.10165 -0.590103 1.0647
                  CHANNELS 3 Zrotation Xrotation Yrotation
                  End Site
                  {
                    OFFSET 2.48547 -0.328903 0.83742
                  }
                }
              }
              JOINT lRing1
              {
                OFFSET 8.82822 0.546677 1.51678
                CHANNELS 3 Zrotation Xrotation Yrotation
                JOINT lRing2
                {
                  OFFSET 2.60934 -0.819778 -0.0198488
                  CHANNELS 3 Zrotation Xrotation Yrotation
                  End Site
                  {
                    OFFSET 2.33842 -0.294052 0.168128
                  }
                }
              }
              JOINT lPinky1
              {
                OFFSET 8.27202 -0.0477905 -0.4584
                CHANNELS 3 Zrotation Xrotation Yrotation
                JOINT lPinky2
                {
                  OFFSET 1.82734 -0.647385 -0.700984
                  CHANNELS 3 Zrotation Xrotation Yrotation
                  End Site
                  {
                    OFFSET 1.69225 -0.51767 -0.607171
                  }
                }
              }
            }
          }
        }
      }
    }
  }
  JOINT rButtock
  {
    OFFSET -8.77824 4.35084 1.2192
    CHANNELS 3 Zrotation Xrotation Yrotation
    JOINT rThigh
    {
      OFFSET 0 -1.70687 -2.19456
      CHANNELS 3 Zrotation Xrotation Yrotation
      JOINT rShin
      {
        OFFSET 0 -36.8199 0.73152
        CHANNELS 3 Zrotation Xrotation Yrotation
        JOINT rFoot
        {
          OFFSET 0.73152 -45.1104 -5.12064
          CHANNELS 3 Zrotation Xrotation Yrotation
          End Site
          {
            OFFSET -1.1221 -3.69964 12.103
          }
        }
      }
    }
  }
  JOINT lButtock
  {
    OFFSET 8.77824 4.35084 1.2192
    CHANNELS 3 Zrotation Xrotation Yrotation
    JOINT lThigh
    {
      OFFSET 0 -1.70687 -2.19456
      CHANNELS 3 Zrotation Xrotation Yrotation
      JOINT lShin
      {
        OFFSET 0 -36.8199 0.73152
        CHANNELS 3 Zrotation Xrotation Yrotation
        JOINT lFoot
        {
          OFFSET -0.73152 -45.1104 -5.12064
          CHANNELS 3 Zrotation Xrotation Yrotation
          End Site
          {
            OFFSET 1.1221 -3.69964 12.103
          }
        }
      }
    }
  }
}
MOTION
Frames:	4
Frame Time:	0.03333
2.5101088740491138 31.758859923468965 -42.2143058911861 14.255815505981445 34.86800003051758 15.54054069519043 -16.28573989868164 13.408903121948242 -0.938881516456604 5.028919219970703 -10.863255500793457 0.05235570669174194 -9.472748756408691 15.360983848571777 -10.588642120361328 8.250799179077148 -26.145910263061523 -18.85661506652832 0.187341570854187 -0.11946595460176468 -0.043433237820863724 -0.048072122037410736 -0.023752307519316673 0.11201199889183044 0.06360006332397461 0.040697596967220306 -0.15052026510238647 32.31460952758789 17.906665802001953 32.71780776977539 -16.72926902770996 -9.476473808288574 30.97817039489746 -0.43192028999328613 24.67424201965332 3.4721803665161133 -0.21884505450725555 -0.015376650728285313 0.12058195471763611 0.030070416629314423 -0.19415844976902008 -0.044961389154195786 -0.010599492117762566 -0.031913284212350845 0.06394091248512268 7.859242916107178 5.620913028717041 0.07740289717912674 -0.1746094971895218 0.12470662593841553 -0.03094060905277729 3.155982494354248 1.1622084379196167 0.060391683131456375 0.002629223745316267 0.024009743705391884 0.02518264763057232 10.344382286071777 0.9583750367164612 0.1383923888206482 0.09595959633588791 -0.13725055754184723 -0.3060043454170227 1.950913667678833 -0.9390663504600525 -0.24078120291233063 0.19449728727340698 -0.15682801604270935 0.07299259305000305 -110.36658477783203 50.78767776489258 46.23122787475586 28.117996215820312 -39.47929000854492 -82.54014587402344 3.63264536857605 -46.617218017578125 8.56989860534668 -0.2836226224899292 -0.23104210197925568 0.10676959156990051 -0.3307918310165405 -0.10812456160783768 0.3581808805465698 -0.1491696685552597 0.08926504105329514 -0.11268284171819687 -7.658936500549316 5.377569198608398 -0.7000680565834045 -0.040306784212589264 0.0005754209705628455 0.20295175909996033 -3.1964094638824463 0.9445233345031738 0.10857933759689331 0.1950089931488037 -0.003569897497072816 0.05042248219251633 -10.24282169342041 0.5567244291305542 -0.04840914532542229 -0.1380119025707245 0.05511949211359024 0.07329423725605011 -2.203456401824951 -0.8206738233566284 0.25618207454681396 0.03195563703775406 -0.22241535782814026 0.2021973431110382 -74.59696197509766 -55.78171157836914 -60.47200393676758 -1.7581640481948853 71.56364440917969 2.9073822498321533 -1.5107548236846924 2.6099212169647217 -12.612859725952148 0.21559637784957886 0.048094768077135086 -0.11456846445798874 11.787269592285156 11.866593360900879 -2.2292563915252686 -0.03897326439619064 18.197757720947266 -1.9363216161727905 0.9902076721191406 -7.48015022277832 28.205543518066406
2.639888124529762 31.60042685548135 -42.69877793248257 14.347953796386719 35.0100212097168 14.873982429504395 -17.4403076171875 15.311288833618164 -0.2304893434047699 5.332672119140625 -10.90264892578125 0.0370413139462471 -9.303192138671875 16.221328735351562 -11.04727554321289 8.670851707458496 -27.534175872802734 -19.56561851501465 0.06816226243972778 -0.027540693059563637 -0.12226758152246475 0.019087767228484154 0.09143958240747452 -0.006194171030074358 0.1629161387681961 -0.1442684680223465 -0.13881103694438934 30.51215362548828 18.421302795410156 32.628665924072266 -16.381370544433594 -9.511324882507324 30.56363296508789 -0.4821222126483917 20.158939361572266 2.9037413597106934 -0.25237762928009033 -0.06285040080547333 0.11925960332155228 0.020480116829276085 -0.10191977024078369 0.049893103539943695 -0.06737732887268066 0.07036617398262024 0.03521035984158516 7.852168560028076 5.665470600128174 0.01676449365913868 -0.022284843027591705 0.11040426045656204 0.05643312260508537 2.9621903896331787 1.2120338678359985 0.11471772938966751 -0.08930815756320953 0.021630486473441124 -0.03723762556910515 10.301595687866211 0.733462393283844 0.08667433261871338 0.03996296972036362 0.02808605320751667 -0.20862837135791779 2.003338098526001 -0.8662486672401428 -0.1608712375164032 0.17179203033447266 -0.1522657573223114 -0.05295531824231148 -111.63219451904297 46.87004470825195 50.234867095947266 27.90856170654297 -40.052059173583984 -83.86109924316406 4.914021968841553 -51.3624267578125 10.368816375732422 -0.25241851806640625 -0.23552542924880981 0.14005129039287567 -0.2603202760219574 -0.08564866334199905 0.2905670702457428 -0.048241060227155685 -0.024104857817292213 -0.16673466563224792 -7.676182746887207 5.400365829467773 -0.716740608215332 -0.08674488216638565 -0.01958111859858036 0.1611059010028839 -3.0876433849334717 1.0074542760849 0.16252990067005157 0.0889628455042839 -0.006218745373189449 0.04430116340517998 -10.172404289245605 0.5184422135353088 0.12707898020744324 -0.2415713220834732 0.050225041806697845 0.201444610953331 -2.278557062149048 -0.695113480091095 0.3028295338153839 -0.006424461025744677 -0.26303842663764954 0.06633763760328293 -73.78054809570312 -56.201725006103516 -58.284690856933594 -1.506651759147644 70.84776306152344 2.5781607627868652 -0.9626012444496155 1.9655812978744507 -8.695351600646973 0.08509278297424316 0.2429448515176773 -0.09210291504859924 11.961506843566895 10.461347579956055 -1.3953297138214111 -0.20516298711299896 21.68896484375 -1.9513217210769653 1.9408549070358276 -8.504973411560059 28.807247161865234
2.68783583905984 31.229882262818986 -43.191804678992774 14.381007194519043 35.05839920043945 13.341731071472168 -18.058530807495117 16.503414154052734 0.5411697626113892 5.665230751037598 -10.795573234558105 0.08436578512191772 -9.292535781860352 16.9123592376709 -11.617040634155273 8.945817947387695 -28.063325881958008 -20.423254013061523 -0.00361643941141665 0.05868846923112869 -0.0750204548239708 0.07172295451164246 0.11762237548828125 -0.06720622628927231 0.2213098406791687 -0.163536936044693 -0.011929521337151527 30.471046447753906 19.290857315063477 31.786243438720703 -16.985116958618164 -10.025257110595703 31.917041778564453 -0.26118916273117065 13.967206001281738 2.070286512374878 -0.22859953343868256 -0.10998713970184326 0.09457340091466904 0.0007514876197092235 0.023162635043263435 0.09672370553016663 -0.09264678508043289 0.1655368208885193 -0.024644209071993828 7.765345096588135 5.643319129943848 -0.029715264216065407 0.07353885471820831 0.08352019637823105 0.102182537317276 2.831679344177246 1.2011104822158813 0.1970662772655487 -0.18888862431049347 -0.04223319888114929 -0.048303697258234024 10.233562469482422 0.5639284253120422 0.04106166586279869 0.06840559840202332 0.12105157226324081 -0.1608467549085617 2.0071582794189453 -0.7787930965423584 -0.10411650687456131 0.14871571958065033 -0.11725156754255295 -0.20572097599506378 -112.70414733886719 44.531009674072266 52.86222839355469 27.71747398376465 -40.88041687011719 -85.61829376220703 5.803778648376465 -54.86270523071289 11.707551002502441 -0.21327097713947296 -0.211471289396286 0.12176232039928436 -0.0011874253395944834 -0.06218225881457329 0.19290518760681152 0.07811083644628525 -0.13850532472133636 -0.15905843675136566 -7.624571323394775 5.551865577697754 -0.6234404444694519 -0.10541264712810516 0.0052040754817426205 0.058265794068574905 -2.9801888465881348 1.0465558767318726 0.12965740263462067 0.009449180215597153 -0.023131022229790688 0.06854196637868881 -10.223566055297852 0.5262561440467834 0.31979885697364807 -0.26603251695632935 0.00882848259061575 0.18361826241016388 -2.3691935539245605 -0.6714290976524353 0.36019209027290344 0.04004860296845436 -0.19146984815597534 -0.030135009437799454 -72.71652221679688 -56.048431396484375 -56.86283874511719 -1.3811618089675903 70.60638427734375 2.2807886600494385 -0.1422998458147049 0.14996019005775452 -4.960876941680908 -0.11211374402046204 0.371995747089386 -0.0894676074385643 12.760576248168945 8.85680103302002 -0.368455708026886 -0.2769051492214203 25.571609497070312 -2.1149823665618896 2.730872631072998 -10.010211944580078 28.690170288085938
2.712847031305075 30.925129467336774 -43.64591418155101 14.1720552444458 35.215065002441406 11.875948905944824 -18.426753997802734 16.66063690185547 1.2289539575576782 5.951227188110352 -10.704275131225586 0.2703970670700073 -9.38038158416748 17.067441940307617 -11.849218368530273 8.818756103515625 -27.61245346069336 -20.918949127197266 -0.01198645681142807 0.017262794077396393 -0.022493595257401466 0.0912545695900917 0.10286461561918259 -0.0033756564371287823 0.13120165467262268 -0.09173942357301712 0.028270050883293152 31.346553802490234 19.595884323120117 31.452497482299805 -17.325393676757812 -9.98365592956543 32.27623748779297 -0.17319528758525848 12.560519218444824 1.8250277042388916 -0.14666250348091125 -0.12247494608163834 0.059821680188179016 0.008911962620913982 0.06406326591968536 0.07794427126646042 -0.09128982573747635 0.17562420666217804 -0.07832858711481094 7.704652786254883 5.526662826538086 0.05585511028766632 0.023549314588308334 0.0010137270437553525 0.14700423181056976 2.867309331893921 1.0839152336120605 0.15542346239089966 -0.2050861418247223 -0.08938326686620712 -0.04166466370224953 10.23852252960205 0.5962052941322327 0.020505597814917564 0.11630351841449738 0.07387702167034149 -0.17058035731315613 2.035637140274048 -0.6929870843887329 -0.07073241472244263 0.14619138836860657 -0.06242437660694122 -0.2188751995563507 -113.66896057128906 43.86515426635742 54.28982925415039 27.510560989379883 -41.512969970703125 -86.99470520019531 6.03451681137085 -55.93305206298828 11.9747953414917 -0.20671296119689941 -0.17342641949653625 0.09787679463624954 0.11765272170305252 -0.02443513832986355 0.08170200884342194 0.11573069542646408 -0.14541970193386078 -0.10532320290803909 -7.585796356201172 5.616496562957764 -0.5152291059494019 -0.11302699148654938 0.024440055713057518 -0.01806160807609558 -2.9745609760284424 1.018713116645813 0.03639749437570572 0.018100610002875328 -0.07976752519607544 0.07056646794080734 -10.286911010742188 0.6059603095054626 0.37692996859550476 -0.15541954338550568 0.018672140315175056 0.08377852290868759 -2.3717451095581055 -0.7544335722923279 0.41748836636543274 0.11438637226819992 -0.060452900826931 -0.05514509230852127 -71.54879760742188 -55.59661865234375 -55.88445281982422 -1.4122830629348755 70.51304626464844 2.1489133834838867 0.5739068388938904 -1.6878644227981567 -1.4658489227294922 -0.19344571232795715 0.34076160192489624 -0.10071836411952972 13.396674156188965 7.863112449645996 0.46862903237342834 -0.23297667503356934 28.501144409179688 -2.3628602027893066 3.021254777908325 -11.225198745727539 28.445287704467773
